<?xml version="1.0" encoding="UTF-8" standalone="no"?>
<!-- Created with Inkscape (http://www.inkscape.org/) -->

<svg
   width="210mm"
   height="297mm"
   viewBox="0 0 210 297"
   version="1.1"
   id="svg1"
   xml:space="preserve"
   inkscape:version="1.3.2 (091e20e, 2023-11-25, custom)"
   sodipodi:docname="logo de la empresa.svg"
   xmlns:inkscape="http://www.inkscape.org/namespaces/inkscape"
   xmlns:sodipodi="http://sodipodi.sourceforge.net/DTD/sodipodi-0.dtd"
   xmlns="http://www.w3.org/2000/svg"
   xmlns:svg="http://www.w3.org/2000/svg"><sodipodi:namedview
     id="namedview1"
     pagecolor="#ffffff"
     bordercolor="#000000"
     borderopacity="0.25"
     inkscape:showpageshadow="2"
     inkscape:pageopacity="0.0"
     inkscape:pagecheckerboard="0"
     inkscape:deskcolor="#d1d1d1"
     inkscape:document-units="mm"
     inkscape:zoom="1.2621856"
     inkscape:cx="456.35127"
     inkscape:cy="557.36652"
     inkscape:window-width="1600"
     inkscape:window-height="837"
     inkscape:window-x="-8"
     inkscape:window-y="-8"
     inkscape:window-maximized="1"
     inkscape:current-layer="layer1"
     showgrid="false" /><defs
     id="defs1" /><g
     inkscape:label="Capa 1"
     inkscape:groupmode="layer"
     id="layer1"><path
       style="fill:#b6d869;stroke:#565f35;stroke-width:0.4;stroke-dasharray:none;fill-opacity:1;stroke-opacity:1"
       d="m 103.86308,173.63528 h 6.22348 l -0.13825,-10.09588 c -0.23974,-1.10061 -0.83642,-1.59946 -1.9362,-1.86704 -1.95714,-0.74811 -4.44616,-1.05883 -6.43094,-1.59045 v 0 l -1.797894,1.52129 3.457494,1.31385 c -5.33136,-0.40002 -9.79482,-1.71615 -11.824626,-5.60114 l -2.281944,0.48405 c 1.523389,7.34951 6.653299,8.79744 12.17037,9.61183 l 2.4894,0.20745 z"
       id="path1"
       sodipodi:nodetypes="ccccccccccccc" /><path
       style="fill:#b6d869;fill-opacity:1;stroke:#565f35;stroke-width:0.4;stroke-dasharray:none;stroke-opacity:1"
       d="m 121.70374,160.08191 2.0745,1.45214 -3.11175,1.2447 v 0 c 2.99523,-0.46411 8.89506,-0.2037 11.40973,-5.32454 l 1.86705,0.48405 c -0.0398,3.20124 -1.59095,8.35071 -11.20228,9.26608 l -2.9043,0.2766 -0.0692,5.94689 -6.22348,-0.20745 -0.0692,-9.26608 c 0.45234,-1.58186 1.09798,-1.81067 1.72874,-2.14364 z"
       id="path2"
       sodipodi:nodetypes="ccccccscccccc" /><path
       style="fill:#62920b;fill-opacity:1;stroke:#36420f;stroke-width:0.4;stroke-dasharray:none;stroke-opacity:1"
       d="m 96.118295,141.27315 c 8.562445,1.44122 16.259055,2.28172 17.771515,10.44163 -0.009,2.1915 0.24333,4.41567 -1.17555,6.43093 l -5.25539,0.0691 c -7.07647,0.093 -11.340575,-6.9637 -11.340575,-9.81928 z"
       id="path3"
       sodipodi:nodetypes="cccssc" /><path
       style="fill:#283e08;fill-opacity:1;stroke:#293f08;stroke-width:0.4;stroke-dasharray:none;stroke-opacity:1"
       d="m 112.92171,157.52336 -4.07984,-3.87239 0.2766,-4.21814 -0.5532,0.0692 -0.20745,3.45749 -8.09053,-7.60648 -0.622353,0.5532 4.425593,3.80324 h -3.94154 v 0.6915 l 4.84049,0.0692 7.39903,7.39903 z"
       id="path4" /><path
       style="fill:#61940c;fill-opacity:1;stroke:#293f08;stroke-width:0.4;stroke-dasharray:none;stroke-opacity:1"
       d="m 114.09726,152.12968 c 3.00344,-4.7718 7.39346,-6.45047 12.79272,-5.87774 -0.25327,5.94395 -3.16575,10.16301 -10.23418,11.68632 l -3.52664,0.0691 z"
       id="path5"
       sodipodi:nodetypes="ccccc" /><path
       style="fill:#293f08;fill-opacity:1;stroke:#293f08;stroke-width:0.4;stroke-dasharray:none;stroke-opacity:1"
       d="m 113.61321,156.48612 2.48939,-1.86705 0.0692,-2.62769 h 0.48405 v 2.35109 l 6.08519,-5.04794 0.20745,0.48405 -2.2128,1.72875 2.4894,0.20745 -0.1383,0.76065 -2.766,-0.48405 -6.77668,5.39369 z"
       id="path6" /><ellipse
       style="fill:none;fill-opacity:1;stroke:none;stroke-width:0.610741;stroke-dasharray:none;stroke-opacity:1"
       id="path11"
       cx="-211.37975"
       cy="-72.030243"
       rx="17.102983"
       ry="14.824359"
       transform="matrix(-0.84674273,-0.53200258,0.89260528,-0.45083901,0,0)" /></g></svg>
